Coordinates
version=1
nRows=11
nColumns=36
inDegrees=yes

Units are S.I. units (second, meters, Newtons, ...)
If the header above contains a line with 'inDegrees', this indicates whether rotational values are in degrees (yes) or radians (no).

endheader
time	pelvis_tilt	pelvis_list	pelvis_rotation	pelvis_tx	pelvis_ty	pelvis_tz	hip_flexion_r	hip_adduction_r	hip_rotation_r	knee_angle_r	knee_angle_r_beta	ankle_angle_r	subtalar_angle_r	mtp_angle_r	hip_flexion_l	hip_adduction_l	hip_rotation_l	knee_angle_l	knee_angle_l_beta	ankle_angle_l	subtalar_angle_l	mtp_angle_l	lumbar_extension	lumbar_bending	lumbar_rotation	arm_flex_r	arm_add_r	arm_rot_r	elbow_flex_r	pro_sup_r	arm_flex_l	arm_add_l	arm_rot_l	elbow_flex_l	pro_sup_l
      2.35000000	    -11.85011984	     -0.77540852	      2.07818757	      0.34692496	      1.34811083	      0.31583636	     19.69247808	     -3.54183846	     -5.89182352	     15.99410986	      0.27914988	    -17.55476890	     -2.78332755	     -7.49999987	     18.76850668	     -3.53832109	     -3.51316148	     16.07792917	      0.28061280	    -21.24846071	     -2.24771295	     -7.49999987	     -6.66378024	      7.05600044	      5.19060416	    -36.59212492	    -26.28546747	    -30.07225305	     22.13289836	     41.29079431	     14.18279738	    -19.58117678	     38.62315244	     36.10188379	     86.87216332
      2.36666670	     -8.31854865	     -0.84601893	      2.43403883	      0.35187117	      1.32174111	      0.32211483	     19.60790533	     -3.05569584	     -3.86824381	     18.20597933	      0.31775428	    -14.88954361	     -4.89669139	     -7.49999987	     22.26743948	     -3.99661472	     -1.85422390	     24.78248597	      0.43253598	    -20.59056520	     -6.60218114	     -7.49999987	     -1.72442447	     -2.86972669	     16.43781976	    -45.54231637	    -13.42945511	    -30.85633198	      8.17752165	     93.43168434	    -48.07560641	    -37.74696697	    -20.89594050	     12.69516344	     99.06025233
      2.38333330	    -12.16871875	     -0.68969454	      2.90510904	      0.37532870	      1.30358554	      0.32053746	     22.64599496	     -3.83145433	     -5.83724053	     12.36986454	      0.21589486	    -17.76666756	     -1.44846014	     -7.49999987	     21.52957962	     -3.49966225	     -2.73145804	     12.53798670	      0.21882915	    -22.76998678	     -2.42276225	     -7.49999987	     -6.27807964	      5.13037688	     13.07437283	    -51.93765352	    -20.76654148	    -43.89088389	     19.55134870	     27.68091469	     39.45794274	      7.99219296	     33.28699310	      0.78417634	    108.26094832
      2.40000000	     -8.77847491	     -0.47456810	      2.53324785	      0.39385181	      1.26396240	      0.32839428	     22.34587717	     -3.32675800	     -3.07107207	     14.70976671	      0.25673386	    -14.87663470	     -3.48769706	     -7.49999987	     25.31852458	     -4.07104967	     -0.66398742	     22.74706324	      0.39701115	    -21.44033279	     -7.74757558	     -7.49999987	      3.34611521	     -7.25504424	     25.54247364	    -56.80809354	     -1.06856252	    -64.98703582	      1.06986100	     98.52018387	    -56.45226869	    -46.68380112	    -22.91820518	      8.57952330	    103.69925246
      2.41666670	    -11.85440118	      0.67739760	      3.14135485	      0.40542924	      1.24633424	      0.32039492	     23.07137640	     -5.06616244	     -4.85244677	      6.73817123	      0.11760327	    -18.50636936	     -0.23010625	     -7.49999987	     22.66884420	     -2.78096404	     -1.72890279	      7.92358678	      0.13829268	    -24.49932751	     -1.67646721	     -7.49999987	    -12.72605387	     -1.10796883	      1.87865729	    -52.88167762	    -29.10083770	    -29.87009316	     29.03134673	     17.79620279	     86.07493613	     14.07770311	    157.38260533	     77.54922946	      3.14803223
      2.43333330	     -8.95393392	      0.25384082	      2.62887346	      0.42195537	      1.21009030	      0.31607915	     23.75079498	     -4.50023505	     -2.09360984	     10.38134416	      0.18118864	    -15.87209701	     -2.59014419	     -7.49999987	     27.94457766	     -3.56542158	     -0.07787871	     20.11265641	      0.35103208	    -21.80238896	     -6.94925182	     -7.49999987	      7.94297661	     -9.95842693	     32.81950873	    -63.80878150	      8.57522757	    -57.66441996	      1.23631911	     89.96526811	    -55.34837784	    -48.85679825	    328.98206791	      3.27140461	    104.71264367
      2.45000000	    -12.44035635	      1.89502685	      3.79675215	      0.43532662	      1.17487428	      0.31353673	     24.93638420	     -7.05988617	     -3.70686968	      3.19263361	      0.05572197	    -18.12144669	      0.12785776	     -7.49999987	     24.52613069	     -1.43108477	     -0.37707166	      4.30856886	      0.07519871	    -25.58951509	     -1.89403122	     -7.49999987	    -18.05933534	     -0.72840856	    -15.66987683	    -54.45316183	    -47.27917728	    -14.96228180	     48.12499974	      9.89654681	    104.34463632	      8.37175832	    505.70276780	     90.37603451	      3.44521470
      2.46666670	     -9.62666054	      1.67072236	      3.08267969	      0.43485138	      1.14690265	      0.32006792	     28.27642868	     -6.73692293	     -0.56378469	     11.62233597	      0.20284803	    -14.78638204	     -2.87611154	     -7.49999987	     33.18746667	     -2.37921940	      0.35416288	     22.01970507	      0.38431635	    -19.95109191	     -6.85559511	     -7.49999987	      9.39905370	    -13.53086477	     34.45800199	    -64.55993910	     14.11377298	    -42.72619546	      3.47152273	    111.91124063	    127.11750462	    227.70989802	    501.82695369	      1.96799926	    104.45624649
      2.48333330	    -13.59083674	      3.07681418	      4.48080315	      0.46192574	      1.10680173	      0.31469320	     28.26230218	     -8.99533347	     -3.57101117	      2.83695102	      0.04951414	    -17.14179856	      1.37934583	     -7.49999987	     29.01075941	     -0.33376933	      0.57164692	      4.86965532	      0.08499152	    -25.50046886	     -2.19364418	     -7.49999987	    -20.48750249	      0.40845503	    -31.91590052	   -220.13276142	   -119.16435836	   -182.05156572	     58.76557919	     12.36077164	    116.72237890	    355.19503689	    494.86790711	     92.76818705	      3.60058721
      2.50000000	    -10.43485022	      2.93814942	      3.05680010	      0.48496101	      1.06380731	      0.31906707	     30.39283216	     -7.86873448	      0.61584100	     12.00486229	      0.20952437	    -13.54108150	     -2.83353672	     -7.49999987	     36.35749350	     -1.88607089	      0.49191815	     23.53568522	      0.41077520	    -20.05578471	     -7.43798003	     -7.49999987	     11.45199461	    -22.36746038	     31.79199872	   -244.48800247	   -195.97369573	   -198.58223955	     30.17039489	    116.23416094	    -45.61769014	    319.41413800	    572.46611174	     22.14079179	    118.25072669
      2.51666670	    -14.90451463	      3.53749437	      5.43623717	      0.51113791	      1.01965376	      0.30870143	     29.37180574	     -9.96806446	     -3.71011357	      2.52068152	      0.04399419	    -15.07247163	      1.94082086	     -7.49999987	     30.78198583	      0.23913405	      0.44327814	      4.68158786	      0.08170912	    -25.93859536	     -1.28305569	     -7.49999987	    -18.51689672	      3.03181675	    -48.96664750	   -355.38721891	    -72.82189545	   -319.09994598	     64.87286501	     15.16468746	   -232.95020638	    338.01770421	    483.50511690	     95.32799605	      3.06206910
